<?xml version="1.0" encoding="utf-8"?>
<!-- Generator: Adobe Illustrator 27.5.0, SVG Export Plug-In . SVG Version: 6.00 Build 0)  -->
<svg version="1.1" xmlns="http://www.w3.org/2000/svg" xmlns:xlink="http://www.w3.org/1999/xlink" x="0px" y="0px"
	 viewBox="0 0 800 800" style="enable-background:new 0 0 800 800;" xml:space="preserve">
<g id="Background">
	<rect style="fill:#F6F6F6;" width="800" height="800"/>
	<g>
		<g>
			<path style="fill:#1D1D1B;" d="M397.962,778.822h0.632v-0.799c0-0.833,0.105-1.49,0.317-1.984
				c0.209-0.488,0.566-0.845,1.069-1.066c0.501-0.224,1.193-0.337,2.067-0.337c1.554,0,2.325,0.378,2.325,1.142
				c0,0.244-0.081,0.457-0.243,0.63c-0.16,0.175-0.354,0.263-0.572,0.263c-0.102,0-0.285-0.02-0.539-0.061
				c-0.246-0.035-0.464-0.059-0.642-0.059c-0.478,0-0.784,0.143-0.924,0.426c-0.133,0.28-0.2,0.684-0.2,1.213v0.633h0.646
				c1.015,0,1.519,0.303,1.519,0.916c0,0.43-0.132,0.706-0.403,0.825c-0.269,0.116-0.64,0.175-1.115,0.175h-0.646v7.035
				c0,0.523-0.125,0.924-0.379,1.197c-0.247,0.278-0.569,0.416-0.967,0.416c-0.373,0-0.687-0.138-0.94-0.416
				c-0.249-0.273-0.372-0.674-0.372-1.197v-7.035h-0.729c-0.399,0-0.701-0.086-0.915-0.268c-0.214-0.176-0.32-0.409-0.32-0.695
				C396.629,779.139,397.07,778.822,397.962,778.822z"/>
			<path style="fill:#1D1D1B;" d="M406.653,785.555v2.219c0,0.538-0.132,0.941-0.383,1.209c-0.251,0.271-0.572,0.404-0.96,0.404
				c-0.388,0-0.704-0.134-0.945-0.412c-0.246-0.268-0.371-0.67-0.371-1.201v-7.395c0-1.194,0.43-1.792,1.291-1.792
				c0.445,0,0.762,0.139,0.957,0.418c0.194,0.282,0.303,0.69,0.323,1.238c0.316-0.548,0.641-0.956,0.974-1.238
				c0.336-0.279,0.781-0.418,1.338-0.418c0.561,0,1.101,0.139,1.626,0.418c0.525,0.282,0.791,0.652,0.791,1.111
				c0,0.323-0.114,0.594-0.338,0.803c-0.226,0.211-0.462,0.316-0.723,0.316c-0.103,0-0.337-0.063-0.706-0.184
				c-0.377-0.115-0.706-0.177-0.989-0.177c-0.389,0-0.706,0.104-0.952,0.304c-0.246,0.211-0.44,0.512-0.577,0.91
				c-0.135,0.402-0.227,0.886-0.278,1.438C406.677,784.08,406.653,784.757,406.653,785.555z"/>
			<path style="fill:#1D1D1B;" d="M418.862,784.641h-5.195c0.007,0.602,0.126,1.137,0.364,1.596
				c0.237,0.458,0.551,0.805,0.943,1.041c0.395,0.233,0.828,0.348,1.3,0.348c0.32,0,0.607-0.033,0.87-0.111
				c0.263-0.073,0.518-0.193,0.766-0.35c0.246-0.158,0.472-0.328,0.681-0.512c0.206-0.18,0.476-0.428,0.808-0.738
				c0.137-0.115,0.33-0.178,0.583-0.178c0.272,0,0.493,0.075,0.662,0.227c0.17,0.15,0.253,0.36,0.253,0.632
				c0,0.241-0.093,0.52-0.278,0.842c-0.19,0.324-0.474,0.628-0.854,0.925c-0.381,0.293-0.857,0.543-1.432,0.733
				c-0.573,0.194-1.233,0.292-1.98,0.292c-1.707,0-3.031-0.482-3.977-1.455c-0.947-0.978-1.424-2.297-1.424-3.962
				c0-0.786,0.119-1.515,0.353-2.187c0.232-0.674,0.573-1.246,1.022-1.729c0.449-0.482,0.998-0.848,1.652-1.104
				c0.655-0.256,1.38-0.383,2.18-0.383c1.038,0,1.928,0.218,2.67,0.66c0.743,0.433,1.302,1.001,1.67,1.695
				c0.369,0.697,0.555,1.4,0.555,2.123c0,0.664-0.193,1.096-0.577,1.297C420.096,784.54,419.557,784.641,418.862,784.641z
				 M413.667,783.131h4.815c-0.064-0.907-0.309-1.588-0.734-2.036c-0.424-0.452-0.981-0.675-1.679-0.675
				c-0.66,0-1.206,0.225-1.628,0.685C414.016,781.563,413.759,782.236,413.667,783.131z"/>
			<path style="fill:#1D1D1B;" d="M429.908,784.641h-5.194c0.005,0.602,0.128,1.137,0.365,1.596c0.234,0.458,0.55,0.805,0.94,1.041
				c0.393,0.233,0.827,0.348,1.301,0.348c0.315,0,0.609-0.033,0.867-0.111c0.267-0.073,0.518-0.193,0.769-0.35
				c0.246-0.158,0.472-0.328,0.681-0.512c0.205-0.18,0.475-0.428,0.807-0.738c0.137-0.115,0.332-0.178,0.583-0.178
				c0.274,0,0.494,0.075,0.664,0.227c0.168,0.15,0.248,0.36,0.248,0.632c0,0.241-0.09,0.52-0.283,0.842
				c-0.181,0.324-0.464,0.628-0.85,0.925c-0.377,0.293-0.858,0.543-1.429,0.733c-0.572,0.194-1.233,0.292-1.983,0.292
				c-1.703,0-3.029-0.482-3.977-1.455c-0.947-0.978-1.422-2.297-1.422-3.962c0-0.786,0.118-1.515,0.353-2.187
				c0.234-0.674,0.574-1.246,1.02-1.729c0.448-0.482,0.998-0.848,1.653-1.104c0.656-0.256,1.383-0.383,2.181-0.383
				c1.035,0,1.925,0.218,2.676,0.66c0.738,0.433,1.296,1.001,1.662,1.695c0.368,0.697,0.556,1.4,0.556,2.123
				c0,0.664-0.192,1.096-0.573,1.297C431.141,784.54,430.601,784.641,429.908,784.641z M424.714,783.131h4.816
				c-0.066-0.907-0.314-1.588-0.734-2.036c-0.428-0.452-0.985-0.675-1.682-0.675c-0.66,0-1.204,0.225-1.629,0.685
				C425.06,781.563,424.802,782.236,424.714,783.131z"/>
			<path style="fill:#1D1D1B;" d="M435.727,780.08v0.318c0.497-0.616,1.018-1.068,1.56-1.357c0.532-0.291,1.145-0.435,1.825-0.435
				c0.815,0,1.572,0.214,2.259,0.633c0.688,0.423,1.229,1.039,1.629,1.85c0.398,0.814,0.602,1.771,0.602,2.882
				c0,0.816-0.117,1.566-0.347,2.254c-0.23,0.684-0.548,1.257-0.948,1.721c-0.403,0.46-0.879,0.819-1.425,1.071
				c-0.554,0.245-1.14,0.371-1.77,0.371c-0.757,0-1.395-0.154-1.911-0.457c-0.516-0.301-1.006-0.752-1.475-1.338v3.986
				c0,1.164-0.429,1.752-1.275,1.752c-0.501,0-0.829-0.152-0.993-0.452c-0.159-0.306-0.242-0.741-0.242-1.321v-11.462
				c0-0.507,0.108-0.882,0.328-1.134c0.223-0.246,0.526-0.375,0.907-0.375c0.377,0,0.684,0.129,0.918,0.384
				C435.609,779.229,435.727,779.595,435.727,780.08z M440.932,783.94c0-0.703-0.106-1.304-0.32-1.805
				c-0.213-0.506-0.511-0.889-0.887-1.156c-0.379-0.27-0.802-0.405-1.265-0.405c-0.729,0-1.35,0.29-1.852,0.864
				c-0.504,0.58-0.755,1.428-0.755,2.551c0,1.053,0.248,1.879,0.751,2.467c0.498,0.586,1.115,0.879,1.855,0.879
				c0.441,0,0.853-0.129,1.227-0.383c0.379-0.257,0.681-0.64,0.906-1.152C440.82,785.283,440.932,784.664,440.932,783.94z"/>
			<path style="fill:#1D1D1B;" d="M446.275,777.352c-0.372,0-0.685-0.117-0.947-0.342c-0.263-0.231-0.397-0.547-0.397-0.961
				c0-0.375,0.137-0.688,0.406-0.93c0.27-0.242,0.581-0.366,0.939-0.366c0.346,0,0.648,0.108,0.915,0.327
				c0.266,0.223,0.399,0.545,0.399,0.969c0,0.41-0.129,0.728-0.39,0.958C446.94,777.234,446.633,777.352,446.275,777.352z
				 M447.59,780.095v7.679c0,0.531-0.128,0.934-0.38,1.201c-0.254,0.278-0.574,0.412-0.964,0.412c-0.392,0-0.703-0.138-0.949-0.416
				c-0.24-0.283-0.366-0.682-0.366-1.197v-7.602c0-0.527,0.126-0.922,0.366-1.184c0.246-0.271,0.558-0.402,0.949-0.402
				c0.39,0,0.71,0.131,0.964,0.402C447.462,779.25,447.59,779.624,447.59,780.095z"/>
			<path style="fill:#1D1D1B;" d="M456.151,788.174l-2.342-3.855l-1.441,1.361v2.113c0,0.512-0.137,0.904-0.406,1.178
				c-0.264,0.278-0.578,0.416-0.929,0.416c-0.409,0-0.73-0.134-0.962-0.412c-0.234-0.268-0.354-0.67-0.354-1.201v-11.329
				c0-0.585,0.117-1.037,0.343-1.346c0.227-0.311,0.555-0.463,0.973-0.463c0.411,0,0.731,0.14,0.972,0.421
				c0.243,0.277,0.363,0.691,0.363,1.233v6.443l2.985-3.135c0.372-0.385,0.651-0.656,0.849-0.799
				c0.192-0.141,0.43-0.213,0.706-0.213c0.335,0,0.609,0.108,0.835,0.316c0.215,0.211,0.327,0.476,0.327,0.792
				c0,0.388-0.36,0.912-1.081,1.559l-1.41,1.292l2.726,4.283c0.197,0.32,0.345,0.559,0.432,0.723
				c0.089,0.166,0.133,0.328,0.133,0.475c0,0.423-0.116,0.752-0.346,1c-0.23,0.24-0.537,0.361-0.908,0.361
				c-0.326,0-0.576-0.084-0.753-0.263C456.688,788.948,456.448,788.629,456.151,788.174z"/>
			<path style="fill:#1D1D1B;" d="M461.922,789.387c-0.401,0-0.748-0.13-1.041-0.389c-0.287-0.258-0.439-0.621-0.439-1.091
				c0-0.394,0.143-0.737,0.421-1.021c0.28-0.285,0.624-0.428,1.032-0.428s0.754,0.143,1.046,0.42
				c0.286,0.285,0.435,0.628,0.435,1.028c0,0.462-0.149,0.825-0.435,1.085C462.649,789.257,462.31,789.387,461.922,789.387z"/>
			<path style="fill:#1D1D1B;" d="M475.129,786.1c0,0.328-0.099,0.683-0.298,1.059c-0.197,0.378-0.498,0.734-0.904,1.076
				c-0.405,0.339-0.914,0.617-1.534,0.822c-0.615,0.207-1.311,0.315-2.079,0.315c-1.643,0-2.925-0.482-3.847-1.438
				c-0.918-0.957-1.378-2.24-1.378-3.848c0-1.096,0.209-2.054,0.632-2.892c0.418-0.837,1.029-1.483,1.828-1.941
				c0.797-0.458,1.754-0.685,2.857-0.685c0.69,0,1.322,0.1,1.897,0.301c0.574,0.2,1.058,0.463,1.46,0.775
				c0.395,0.324,0.701,0.66,0.91,1.02c0.214,0.359,0.317,0.697,0.317,1.01c0,0.316-0.117,0.586-0.354,0.805
				c-0.237,0.223-0.524,0.333-0.859,0.333c-0.223,0-0.407-0.056-0.551-0.169c-0.148-0.115-0.312-0.298-0.489-0.555
				c-0.326-0.492-0.666-0.864-1.02-1.107c-0.354-0.249-0.801-0.372-1.348-0.372c-0.78,0-1.415,0.309-1.895,0.92
				c-0.481,0.611-0.72,1.455-0.72,2.516c0,0.498,0.063,0.961,0.186,1.379c0.12,0.416,0.297,0.773,0.534,1.068
				c0.234,0.295,0.513,0.518,0.844,0.672c0.334,0.155,0.696,0.23,1.089,0.23c0.536,0,0.99-0.123,1.368-0.371
				c0.386-0.246,0.721-0.621,1.011-1.129c0.163-0.296,0.336-0.529,0.522-0.699c0.189-0.166,0.42-0.255,0.693-0.255
				c0.324,0,0.595,0.125,0.806,0.372C475.022,785.555,475.129,785.823,475.129,786.1z"/>
			<path style="fill:#1D1D1B;" d="M486.592,783.988c0,0.789-0.126,1.522-0.367,2.189c-0.251,0.67-0.606,1.242-1.075,1.72
				c-0.463,0.481-1.025,0.849-1.67,1.105c-0.654,0.254-1.381,0.384-2.192,0.384c-0.804,0-1.525-0.13-2.168-0.389
				c-0.64-0.258-1.203-0.631-1.667-1.109c-0.472-0.488-0.829-1.061-1.075-1.717c-0.237-0.66-0.362-1.386-0.362-2.184
				c0-0.805,0.128-1.541,0.369-2.209c0.246-0.67,0.603-1.242,1.064-1.714c0.46-0.474,1.017-0.837,1.672-1.096
				c0.656-0.255,1.379-0.384,2.168-0.384c0.807,0,1.536,0.129,2.192,0.391c0.652,0.258,1.212,0.631,1.682,1.105
				c0.469,0.483,0.824,1.055,1.066,1.713C486.469,782.461,486.592,783.188,486.592,783.988z M483.926,783.988
				c0-1.084-0.24-1.924-0.717-2.531c-0.473-0.605-1.115-0.906-1.922-0.906c-0.52,0-0.975,0.136-1.372,0.404
				c-0.396,0.268-0.697,0.666-0.913,1.193c-0.214,0.525-0.323,1.138-0.323,1.84c0,0.697,0.105,1.298,0.315,1.816
				c0.215,0.523,0.515,0.919,0.909,1.194c0.395,0.273,0.854,0.413,1.384,0.413c0.807,0,1.449-0.305,1.922-0.91
				C483.685,785.894,483.926,785.057,483.926,783.988z"/>
			<path style="fill:#1D1D1B;" d="M496.721,784.185v3.529c0,0.559-0.123,0.973-0.38,1.256c-0.254,0.278-0.586,0.416-1.003,0.416
				c-0.398,0-0.729-0.138-0.973-0.416c-0.251-0.283-0.381-0.697-0.381-1.256v-4.232c0-0.668-0.021-1.189-0.063-1.561
				c-0.049-0.363-0.172-0.672-0.372-0.904c-0.2-0.24-0.52-0.36-0.955-0.36c-0.868,0-1.438,0.298-1.717,0.901
				c-0.274,0.592-0.413,1.448-0.413,2.568v3.588c0,0.549-0.126,0.969-0.374,1.252c-0.251,0.282-0.581,0.42-0.987,0.42
				c-0.405,0-0.731-0.138-0.989-0.42c-0.257-0.283-0.386-0.703-0.386-1.252v-7.6c0-0.5,0.115-0.881,0.346-1.139
				c0.232-0.262,0.536-0.391,0.91-0.391c0.365,0,0.667,0.127,0.911,0.365c0.244,0.243,0.364,0.578,0.364,1.008v0.25
				c0.465-0.548,0.955-0.953,1.48-1.21c0.526-0.263,1.108-0.393,1.751-0.393c0.668,0,1.243,0.135,1.722,0.398
				c0.481,0.268,0.874,0.67,1.188,1.205c0.447-0.541,0.93-0.943,1.439-1.21c0.517-0.261,1.081-0.393,1.704-0.393
				c0.727,0,1.354,0.144,1.879,0.431c0.525,0.283,0.915,0.696,1.174,1.222c0.23,0.484,0.341,1.24,0.341,2.271v5.185
				c0,0.559-0.128,0.973-0.377,1.256c-0.252,0.278-0.587,0.416-1.004,0.416c-0.4,0-0.73-0.138-0.986-0.42
				c-0.258-0.283-0.384-0.703-0.384-1.252v-4.467c0-0.572-0.025-1.028-0.074-1.373c-0.046-0.343-0.181-0.633-0.392-0.865
				c-0.217-0.233-0.543-0.353-0.976-0.353c-0.349,0-0.682,0.108-0.997,0.315c-0.314,0.203-0.558,0.484-0.737,0.834
				C496.821,782.253,496.721,783.047,496.721,784.185z"/>
			<g>
				<path style="fill-rule:evenodd;clip-rule:evenodd;fill:#1D1D1B;" d="M379.567,790.315c0,0-1.449-0.23-2.862-1.776
					c-1.427-1.563-1.665-3.213-1.665-3.213s1.807,0.426,3.105,0.568c2.286,0.258,4.344,0.113,5.315,0.01
					c2.105-0.232,3.225-0.621,3.675-0.732c2.686-0.643,5.27-2.383,5.27-2.383s0.326,2.019-1.19,4.256
					c-0.592,0.875-1.77,1.881-3.127,2.572C383.438,791.599,379.567,790.315,379.567,790.315z"/>
				<path style="fill-rule:evenodd;clip-rule:evenodd;fill:#1D1D1B;" d="M390.552,778.849c-0.502-0.602-2.166-3.456-5.535-3.868
					c-0.859-0.104-5.413,0.072-8.144,2.601c-0.271,0.254-1.66,1.475-2.119,3.741c-0.359,1.753,0.229,3.726,0.229,3.726
					s3.03,0.631,5.313,0.572c3.62-0.09,5.441-0.412,7.331-0.982c2.788-0.846,4.758-2.258,4.758-2.258
					S391.053,779.459,390.552,778.849z M380.104,783.188c-1.532,0.101-2.848-1.054-2.944-2.579c-0.095-1.52,1.069-2.836,2.602-2.93
					c1.529-0.104,2.848,1.057,2.942,2.574C382.801,781.779,381.635,783.094,380.104,783.188z M387.922,781.224
					c-0.962,0.058-1.793-0.669-1.852-1.626c-0.06-0.955,0.677-1.782,1.638-1.845c0.961-0.063,1.793,0.669,1.852,1.624
					C389.623,780.332,388.883,781.164,387.922,781.224z"/>
				<path style="fill-rule:evenodd;clip-rule:evenodd;fill:#1D1D1B;" d="M389.24,776.877l0.879-1.055c0,0,1.215,0.596,1.996,1.721
					c0.779,1.123,1.286,2.148,1.286,2.148l-1.452,0.883c0,0-0.451-1.082-1.127-1.951C390.152,777.757,389.24,776.877,389.24,776.877
					z"/>
				<path style="fill-rule:evenodd;clip-rule:evenodd;fill:#1D1D1B;" d="M392.002,777.609c0.226-0.136,0.61-0.156,0.587-0.478
					c-0.017-0.318-0.234-0.953,0.4-1.17c0.638-0.213,0.278,0.188,0.058,0.467c-0.218,0.279-0.146,0.451-0.121,0.861
					c0.026,0.405-0.26,0.541-0.692,0.742C391.803,778.238,391.774,777.746,392.002,777.609z"/>
				<path style="fill-rule:evenodd;clip-rule:evenodd;fill:#1D1D1B;" d="M375.867,778.258c0,0-1.021,1.183-1.275,2.252
					c-0.26,1.074-0.208,2.365-0.208,2.365l-1.507-0.519c0,0-0.088-1.483,0.6-2.682c0.762-1.329,1.737-1.925,1.737-1.925
					L375.867,778.258z"/>
				<path style="fill-rule:evenodd;clip-rule:evenodd;fill:#1D1D1B;" d="M373.648,779.604c-0.246-0.161-0.269-0.54-0.46-0.789
					c-0.195-0.257-0.244-0.103-0.688-0.103c-0.441-0.004-0.455-0.21-0.581-0.316c-0.126-0.111-0.183,0.332-0.183,0.332
					s0.082,0.377,0.555,0.403c0.474,0.03,0.46-0.202,0.665,0.225c0.204,0.426,0.606,0.751,0.606,0.751
					S373.897,779.764,373.648,779.604z"/>
				<path style="fill-rule:evenodd;clip-rule:evenodd;fill:#1D1D1B;" d="M381.649,773.988c2.476-0.619,4.023,0.096,4.023,0.096
					l-0.134,0.711c0,0-1.808-0.119-3.238,0.092c-1.437,0.205-2.087,0.658-2.087,0.658l-0.311-0.711
					C379.902,774.834,380.58,774.256,381.649,773.988z"/>
				<path style="fill-rule:evenodd;clip-rule:evenodd;fill:#1D1D1B;" d="M382.393,772.971l0.346-0.125l0.46,1.234l-0.346,0.127
					L382.393,772.971z"/>
				<path style="fill-rule:evenodd;clip-rule:evenodd;fill:#1D1D1B;" d="M393.286,775.264c0.351-0.02,0.648,0.244,0.672,0.596
					c0.023,0.346-0.245,0.644-0.595,0.666c-0.349,0.023-0.646-0.243-0.669-0.589C392.672,775.588,392.935,775.293,393.286,775.264z"
					/>
				<path style="fill-rule:evenodd;clip-rule:evenodd;fill:#1D1D1B;" d="M371.567,777.654c0.349-0.021,0.648,0.243,0.669,0.592
					c0.021,0.346-0.242,0.64-0.595,0.666c-0.349,0.023-0.646-0.242-0.669-0.589C370.949,777.975,371.218,777.68,371.567,777.654z"/>
				<path style="fill-rule:evenodd;clip-rule:evenodd;fill:#1D1D1B;" d="M382.695,771.398c0.555-0.035,1.035,0.381,1.067,0.936
					c0.036,0.551-0.39,1.029-0.944,1.064c-0.555,0.039-1.035-0.381-1.069-0.938C381.714,771.908,382.138,771.432,382.695,771.398z"
					/>
			</g>
		</g>
		<g>
			<path style="fill:#1D1D1B;" d="M303.679,787.926c0,0.621-0.39,1.031-0.934,1.031c-0.512,0-0.809-0.281-0.925-0.775
				c-0.349,0.57-1.069,0.85-1.701,0.85c-1.872,0-3.057-1.734-3.057-3.49c0-1.809,0.994-3.674,2.992-3.674
				c0.643,0,1.275,0.221,1.766,0.646v-2.531c0-0.617,0.386-1.027,0.925-1.027c0.544,0,0.934,0.41,0.934,1.027V787.926z
				 M300.364,783.569c-0.967,0-1.443,1.017-1.443,1.894c0,0.865,0.476,1.871,1.443,1.871c1.015,0,1.456-1.033,1.456-1.936
				C301.82,784.494,301.355,783.569,300.364,783.569z"/>
			<path style="fill:#1D1D1B;" d="M306.225,786.066c0.134,0.916,0.892,1.345,1.756,1.345c0.953,0,1.612-0.75,2.1-0.75
				c0.4,0,0.76,0.401,0.76,0.804c0,0.797-1.647,1.567-3.027,1.567c-2.091,0-3.48-1.518-3.48-3.568c0-1.883,1.366-3.596,3.325-3.596
				c2.009,0,3.338,1.83,3.338,3.377c0,0.555-0.247,0.822-0.811,0.822H306.225z M309.143,784.832
				c-0.104-0.813-0.618-1.416-1.484-1.416c-0.825,0-1.38,0.629-1.469,1.416H309.143z"/>
			<path style="fill:#1D1D1B;" d="M315.56,784.032c-0.349,0-1.055-0.542-1.663-0.542c-0.334,0-0.632,0.157-0.632,0.517
				c0,0.862,3.224,0.735,3.224,2.851c0,1.234-1.045,2.174-2.644,2.174c-1.045,0-2.59-0.591-2.59-1.426
				c0-0.286,0.283-0.826,0.799-0.826c0.722,0,1.044,0.632,1.921,0.632c0.566,0,0.734-0.183,0.734-0.532
				c0-0.85-3.222-0.719-3.222-2.847c0-1.288,1.042-2.165,2.511-2.165c0.916,0,2.323,0.426,2.323,1.342
				C316.321,783.632,315.997,784.032,315.56,784.032z"/>
			<path style="fill:#1D1D1B;" d="M319.091,780.178c0,0.582-0.462,1.071-1.045,1.071c-0.553,0-1.041-0.503-1.041-1.071
				c0-0.527,0.488-1.016,1.041-1.016C318.603,779.162,319.091,779.636,319.091,780.178z M317.121,782.979
				c0-0.621,0.386-1.034,0.925-1.034c0.544,0,0.929,0.413,0.929,1.034v4.947c0,0.621-0.386,1.031-0.929,1.031
				c-0.539,0-0.925-0.41-0.925-1.031V782.979z"/>
			<path style="fill:#1D1D1B;" d="M326.349,788.338c0,2.229-1.457,3.353-3.574,3.353c-0.757,0-2.922-0.375-2.922-1.394
				c0-0.35,0.386-0.813,0.748-0.813c0.593,0,1.251,0.58,2.319,0.58c0.903,0,1.573-0.525,1.573-1.47v-0.438h-0.026
				c-0.385,0.567-1.017,0.874-1.868,0.874c-1.947,0-2.865-1.712-2.865-3.555c0-1.87,1.188-3.609,3.055-3.609
				c0.635,0,1.354,0.283,1.703,0.848c0.116-0.488,0.411-0.771,0.927-0.771c0.543,0,0.929,0.413,0.929,1.034V788.338z
				 M323.035,783.569c-0.966,0-1.442,1.005-1.442,1.87c0,0.988,0.476,1.894,1.442,1.894c0.992,0,1.457-0.928,1.457-1.836
				C324.492,784.602,324.053,783.569,323.035,783.569z"/>
			<path style="fill:#1D1D1B;" d="M327.403,782.979c0-0.621,0.386-1.034,0.929-1.034c0.479,0,0.786,0.257,0.851,0.688
				c0.363-0.508,0.915-0.765,1.794-0.765c1.454,0,2.536,0.93,2.536,2.498v3.561c0,0.621-0.383,1.031-0.925,1.031
				c-0.54,0-0.929-0.41-0.929-1.031v-3.236c0-0.863-0.543-1.273-1.212-1.273c-0.759,0-1.185,0.554-1.185,1.273v3.236
				c0,0.621-0.39,1.031-0.929,1.031c-0.543,0-0.929-0.41-0.929-1.031V782.979z"/>
			<path style="fill:#1D1D1B;" d="M336.066,786.066c0.128,0.916,0.889,1.345,1.753,1.345c0.954,0,1.611-0.75,2.101-0.75
				c0.4,0,0.761,0.401,0.761,0.804c0,0.797-1.651,1.567-3.029,1.567c-2.09,0-3.482-1.518-3.482-3.568
				c0-1.883,1.369-3.596,3.328-3.596c2.008,0,3.337,1.83,3.337,3.377c0,0.555-0.246,0.822-0.813,0.822H336.066z M338.979,784.832
				c-0.105-0.813-0.62-1.416-1.482-1.416c-0.826,0-1.383,0.629-1.472,1.416H338.979z"/>
			<path style="fill:#1D1D1B;" d="M347.832,787.926c0,0.621-0.386,1.031-0.929,1.031c-0.513,0-0.808-0.281-0.924-0.775
				c-0.349,0.57-1.072,0.85-1.704,0.85c-1.87,0-3.055-1.734-3.055-3.49c0-1.809,0.995-3.674,2.992-3.674
				c0.642,0,1.274,0.221,1.767,0.646v-2.531c0-0.617,0.386-1.027,0.924-1.027c0.543,0,0.929,0.41,0.929,1.027V787.926z
				 M344.522,783.569c-0.968,0-1.442,1.017-1.442,1.894c0,0.865,0.474,1.871,1.442,1.871c1.016,0,1.457-1.033,1.457-1.936
				C345.979,784.494,345.514,783.569,344.522,783.569z"/>
			<path style="fill:#1D1D1B;" d="M352.344,779.982c0-0.617,0.389-1.027,0.93-1.027c0.541,0,0.926,0.41,0.926,1.027v2.531
				c0.491-0.426,1.123-0.646,1.767-0.646c1.999,0,2.99,1.865,2.99,3.674c0,1.756-1.186,3.49-3.056,3.49
				c-0.629,0-1.353-0.279-1.701-0.85c-0.113,0.494-0.41,0.775-0.926,0.775c-0.541,0-0.93-0.41-0.93-1.031V779.982z M355.658,787.334
				c0.966,0,1.445-1.006,1.445-1.871c0-0.877-0.478-1.894-1.445-1.894c-0.992,0-1.457,0.925-1.457,1.829
				C354.2,786.301,354.64,787.334,355.658,787.334z"/>
			<path style="fill:#1D1D1B;" d="M359.281,783.22c-0.053-0.14-0.092-0.286-0.092-0.476c0-0.467,0.49-0.8,0.875-0.8
				c0.451,0,0.774,0.246,0.932,0.657l1.273,3.497l1.366-3.497c0.154-0.411,0.478-0.657,0.929-0.657c0.389,0,0.875,0.333,0.875,0.8
				c0,0.19-0.025,0.336-0.088,0.476l-3.105,7.735c-0.158,0.385-0.441,0.735-0.878,0.735c-0.632,0-0.967-0.401-0.967-0.8
				c0-0.182,0.051-0.375,0.114-0.542l0.815-2.011L359.281,783.22z"/>
		</g>
	</g>
</g>
<g id="Objects">
	<path style="fill:#878787;" d="M732.985,658.496c0.881-2.644,1.374-5.463,1.374-8.401V341.537
		c0-14.627-11.857-26.483-26.483-26.483H560.438v328.426c0,5.272-0.953,10.314-2.637,15.016h-17.287
		c0.882-2.644,1.374-5.463,1.374-8.401V226.315c0-14.627-11.864-26.483-26.483-26.483H284.088
		c-14.627,0-26.482,11.855-26.482,26.483v423.779c0,2.938,0.5,5.758,1.381,8.401H241.7c-1.684-4.701-2.636-9.743-2.636-15.016
		V315.054H95.16c-14.627,0-26.483,11.856-26.483,26.483v308.558c0,2.938,0.5,5.757,1.374,8.401H24.526v54.736h750.451v-54.736
		H732.985z M148.125,550.334H110.16v-37.965h37.965V550.334z M148.125,483.679H110.16v-37.966h37.965V483.679z M148.125,419.23
		H110.16v-37.965h37.965V419.23z M207.285,550.334h-37.965v-37.965h37.965V550.334z M207.285,483.679h-37.965v-37.966h37.965
		V483.679z M207.285,419.23h-37.965v-37.965h37.965V419.23z M458.684,656.726H347.218V517.665h111.465V656.726z M399.747,398.473
		c-51.56,0-93.361-41.801-93.361-93.361c0-51.568,41.809-93.369,93.361-93.369c51.568,0,93.368,41.801,93.368,93.369
		S451.315,398.473,399.747,398.473z M640.784,550.334h-37.966v-37.965h37.966V550.334z M640.784,483.679h-37.966v-37.966h37.966
		V483.679z M640.784,419.23h-37.966v-37.965h37.966V419.23z M699.928,550.334H661.97v-37.965h37.958V550.334z M699.928,483.679
		H661.97v-37.966h37.958V483.679z M699.928,419.23H661.97v-37.965h37.958V419.23z M422.919,281.941h35.757v46.343h-35.757v35.773
		h-46.343v-35.773h-35.758v-46.343h35.758v-35.758h46.343V281.941z"/>
	<g>
		<path style="fill:#3C3C3B;" d="M648.779,298.912c6.131,0,11.13-4.988,11.13-11.119h-3.798c0,4.045-3.281,7.337-7.337,7.337h-39.14
			v-15.075h-11.357v15.069h-28.411c-0.874-2.455-2.38-3.94-4.25-3.94c-1.864,0-3.387,1.485-4.251,3.94h-2.522
			c-4.04,0-7.332-3.292-7.332-7.337h-3.787c0,6.131,4.988,11.119,11.113,11.119h1.781c-0.032,0.49-0.079,0.985-0.079,1.501
			c0,0.706,0.047,1.38,0.115,2.023h-6.715c-4.698,0-8.502,3.824-8.502,8.517v40.957c0,4.704,3.809,8.512,8.502,8.512h2.523v11.619
			h0.9c-1.475,35.669-16.207,51.034-54.029,56.443c-5.705,0.848-12.989,0.722-20.705,0.605c-14.569-0.231-31.107-0.495-41.489,5.999
			c-8.844,5.521-11.509,13.705-14.079,21.616c-2.117,6.489-4.113,12.625-9.423,17.413c-2.87,2.671-6.104,4.461-9.607,5.715
			c-64.854-7.132-64.891-7.132-64.891-7.132v4.619c-42.463,8.128-63.785-11.598-64.907-12.683
			c-5.625-5.604-14.737-5.662-20.405-0.09c-5.73,5.609-5.809,14.806-0.2,20.521c1.111,1.138,23.434,23.292,65.792,23.292
			c6.142,0,12.736-0.501,19.72-1.564v6.557c-6.705,1.001-13.336,1.56-19.794,1.56c-42.869,0-65.66-21.895-68.12-24.392
			c-2.217-2.266-3.755-4.983-4.698-7.917c-0.1-0.273-0.163-0.553-0.247-0.843c-0.231-0.827-0.421-1.659-0.537-2.522
			c-0.032-0.216-0.116-0.416-0.137-0.638c-0.047-0.369,0-0.742-0.016-1.107c-0.021-0.41-0.116-0.8-0.11-1.216
			c0-0.243,0.068-0.48,0.084-0.722c0.032-0.659,0.111-1.296,0.206-1.939c0.1-0.69,0.2-1.364,0.369-2.033
			c0.1-0.369,0.227-0.737,0.342-1.106c0.98-3.112,2.618-5.988,5.009-8.332c3.776-3.698,8.759-5.741,14.053-5.741
			c5.346,0,10.381,2.086,14.163,5.862c0.463,0.442,13.289,12.53,39.53,12.53c0.643,0,1.306-0.042,1.959-0.063
			c-22.833-7.742-46.84-20.705-46.84-20.705c-10.903-7.036-24.392-2.181-32.314,5.314c0,0-2.644,2.26-4.503,5.283
			c-1.77,2.892-3.165,6.505-3.165,6.505l-0.042,0.084c-2.634,7.611-2.697,17.313,1.79,24.729c0,0,3.034,4.477,6.716,6.947
			c0,0,51.949,35.801,84.685,36.897c3.977,0.131,7.822,0.179,11.604,0.189v6.515h-28.09l-103.593-55.141
			c1.448-0.543,2.733-1.554,3.497-3.029c1.643-3.176,0.411-7.078-2.75-8.722l-35.647-18.52c-3.176-1.648-7.074-0.41-8.723,2.76
			c-0.664,1.285-0.758,2.676-0.542,4.003l-4.604-2.454c-7.864-3.945-17.439-0.769-21.384,7.095
			c-3.945,7.864-0.769,17.435,7.095,21.379l142.207,76.016H186.891c-5.277,0-9.559,4.282-9.559,9.555v5.309
			c0,5.278,4.282,9.555,9.559,9.555h33.605c-0.079,0.701-0.126,1.412-0.126,2.123v81.64c-3.292,2.634-5.441,6.637-5.441,11.177
			c0,7.938,6.437,14.374,14.374,14.374c7.943,0,14.374-6.436,14.374-14.374c0-3.955-1.607-7.537-4.187-10.134v-17.913h288.806
			v16.744c-3.376,2.628-5.588,6.694-5.588,11.303c0,7.938,6.426,14.374,14.368,14.374c7.938,0,14.374-6.436,14.374-14.374
			c0-3.865-1.548-7.363-4.034-9.949v-82.867c0-10.155-7.959-18.456-17.966-19.057c6.12-2.218,10.528-8.032,10.528-14.922
			c0-8.512-6.694-15.406-15.09-15.849c3.64-20.01-1.622-54.088-75.499-62.21c-12.083-1.327-22.717-2.502-32.203-3.545
			c1.333-0.896,2.629-1.88,3.855-3.033c6.273-5.646,8.575-12.71,10.798-19.547c2.412-7.39,4.688-14.374,11.972-18.935
			c9.134-5.71,24.898-5.441,38.767-5.236c7.927,0.121,15.406,0.248,21.495-0.652c40.372-5.773,56.573-23.033,58.101-61.389h0.78
			v-11.619h5.509v5.13h6.463v-5.13h2.359c4.704,0,8.512-3.814,8.512-8.512v-40.957c0-4.698-3.813-8.517-8.512-8.517h-6.699
			c0.074-0.643,0.116-1.317,0.116-2.023c0-0.521-0.048-1.011-0.09-1.501h27.673l-0.052,365.089h-6.8
			c-12.067,0-22.381,7.527-26.589,18.108c-4.509,1.375-7.816,5.521-7.816,10.482c0,6.078,4.93,11.008,10.998,11.008
			c6.083,0,11.014-4.93,11.014-11.008c0-2.924-1.159-5.558-2.997-7.527c2.797-5.709,8.611-9.681,15.395-9.681h25.63
			c6.778,0,12.599,3.972,15.396,9.681c-1.849,1.97-2.997,4.604-2.997,7.527c0,6.078,4.925,11.008,11.003,11.008
			c6.078,0,11.003-4.93,11.003-11.008c0-4.962-3.303-9.107-7.816-10.482c-4.203-10.587-14.521-18.108-26.583-18.108h-7.442
			l0.021-365.089H648.779z M528.289,596.414v52.023H239.483v-52.023H528.289z M564.464,298.912h2.328
			c0.036,0.48,0.11,0.938,0.11,1.501c0,0.748-0.058,1.422-0.143,2.023h-2.265c-0.084-0.6-0.142-1.275-0.142-2.023
			C564.348,299.849,564.422,299.391,564.464,298.912z M574.45,333.022c0,4.94-4.009,8.954-8.949,8.954
			c-4.94,0-8.948-4.014-8.948-8.954c0-4.941,8.948-18.951,8.948-18.951S574.45,328.081,574.45,333.022z"/>
		<path style="fill:#3C3C3B;" d="M215.102,410.838c17.494,0,31.676,14.182,31.676,31.676c0,17.495-14.182,31.677-31.676,31.677
			c-17.495,0-31.677-14.182-31.677-31.677C183.425,425.02,197.607,410.838,215.102,410.838z"/>
	</g>
	<g>
		<path style="fill:#9C9C9B;" d="M400.497,69.855c-22.863,0-41.479,18.599-41.479,41.479c0,21.967,37.449,73.87,39.049,76.065
			c0.56,0.776,1.468,1.245,2.43,1.245c0.963,0,1.865-0.469,2.431-1.245c1.588-2.196,39.049-54.099,39.049-76.065
			C441.977,88.46,423.36,69.855,400.497,69.855z"/>
		<path style="fill:#F5F5F5;" d="M400.479,136.074c13.624,0,24.728-11.08,24.758-24.686c0.023-13.654-11.056-24.77-24.686-24.794
			c-13.66,0-24.763,11.08-24.794,24.686c-0.018,6.617,2.544,12.83,7.206,17.51c4.662,4.68,10.875,7.266,17.479,7.284"/>
		<path style="fill:#9C9C9B;" d="M415.102,98.047v25.834c0,1.654-1.348,3.007-3.007,3.007c-1.654,0-3.008-1.354-3.008-3.007v-9.901
			H391.92v9.901c0,1.654-1.353,3.007-3.007,3.007c-1.66,0-3.007-1.354-3.007-3.007V98.047c0-1.654,1.347-3.007,3.007-3.007
			c1.654,0,3.007,1.353,3.007,3.007v9.907h17.167v-9.907c0-1.654,1.354-3.007,3.008-3.007
			C413.754,95.04,415.102,96.393,415.102,98.047z"/>
	</g>
</g>
</svg>
