<?xml version="1.0" encoding="utf-8"?>
<!-- Generator: Adobe Illustrator 26.0.1, SVG Export Plug-In . SVG Version: 6.00 Build 0)  -->
<svg version="1.1" id="Layer_1" xmlns="http://www.w3.org/2000/svg" xmlns:xlink="http://www.w3.org/1999/xlink" x="0px" y="0px"
	 viewBox="0 0 222 43.5" style="enable-background:new 0 0 222 43.5;" xml:space="preserve">
<style type="text/css">
	.st0{enable-background:new    ;}
	.st1{fill:#737373;}
	.st2{fill:#6F42C1;}
	.st3{clip-path:url(#SVGID_00000150101498908059035820000007175373952187618488_);}
	.st4{clip-path:url(#SVGID_00000181803755090424670460000012773700736586008242_);}
</style>
<g class="st0">
	<path class="st1" d="M41.4,5.9l-9.3,27.4H30L21.5,8.7L13,33.2h-2.1L1.6,5.9h2.1L12,30.5l8.6-24.6h1.9L31,30.6l8.4-24.7
		C39.4,5.9,41.4,5.9,41.4,5.9z"/>
</g>
<g class="st0">
	<path class="st1" d="M47,6.3c0-0.9,0.7-1.6,1.6-1.6c0.9,0,1.6,0.7,1.6,1.6s-0.7,1.6-1.6,1.6S47,7.2,47,6.3z M47.6,12.8h2v20.4h-2
		V12.8z"/>
</g>
<g class="st0">
	<path class="st1" d="M55.1,30.8l0.9-1.6c1.6,1.3,4.3,2.5,7.4,2.5c4.3,0,6-1.5,6-3.8c0-5.9-13.5-1.6-13.5-9.6c0-3.1,2.6-5.6,7.7-5.6
		c2.6,0,5.4,0.8,7,2l-0.9,1.6c-1.7-1.3-4-1.8-6.1-1.8c-4,0-5.8,1.6-5.8,3.8c0,6.1,13.5,1.8,13.5,9.6c0,3.3-2.9,5.6-8.1,5.6
		C59.9,33.4,56.7,32.3,55.1,30.8z"/>
</g>
<g class="st0">
	<path class="st1" d="M95.5,21.3v11.9h-2V21.5c0-4.6-2.5-7-6.6-7c-4.8,0-7.7,3.1-7.7,7.9v10.9h-2v-29h2v12.9c1.4-2.8,4.2-4.4,8-4.4
		C92.2,12.7,95.5,15.6,95.5,21.3z"/>
</g>
<g class="st0">
	<path class="st2" d="M119.9,5.9h6.1v27.3h-6.1V22.5h-10.9v10.8H103V5.9h6.1v11.4h10.9V5.9z"/>
</g>
<g class="st0">
	<path class="st2" d="M152.2,30.2c-2.4,2.2-5.2,3.4-8.4,3.4s-5.8-1-7.9-3c-2.1-2-3.1-4.6-3.1-7.9s1.1-5.9,3.2-7.9
		c2.1-2,4.6-2.9,7.5-2.9s5.4,0.9,7.4,2.6s3,4.1,3,7.2v3.1h-15.3c0.2,1.1,0.8,2.1,1.8,2.8c1,0.7,2.2,1.1,3.4,1.1
		c2.1,0,3.8-0.7,5.1-2.1L152.2,30.2z M146.6,17.7c-0.8-0.7-1.8-1-3-1s-2.2,0.4-3.2,1.1s-1.5,1.7-1.7,2.9h9.2
		C147.9,19.4,147.4,18.4,146.6,17.7z"/>
</g>
<g class="st0">
	<path class="st2" d="M176.5,33.2H171v-2.5c-1.5,1.9-3.4,2.9-5.6,2.9c-2.2,0-4.1-0.6-5.6-1.9c-1.5-1.3-2.3-3-2.3-5.2
		s0.8-3.8,2.3-4.8c1.6-1.1,3.7-1.6,6.4-1.6h4.4V20c0-2.2-1.2-3.4-3.6-3.4c-1,0-2.1,0.2-3.2,0.6c-1.1,0.4-2.1,0.9-2.9,1.5l-2.6-3.8
		c2.8-2,5.9-3,9.5-3c2.6,0,4.6,0.6,6.3,1.9c1.6,1.3,2.4,3.3,2.4,6.1L176.5,33.2L176.5,33.2z M170.6,25.2v-1H167
		c-2.3,0-3.5,0.7-3.5,2.2c0,0.8,0.3,1.3,0.8,1.7c0.6,0.4,1.4,0.6,2.4,0.6s2-0.3,2.8-1C170.2,27.2,170.6,26.3,170.6,25.2z"/>
</g>
<g class="st0">
	<path class="st2" d="M189.8,16.4v9.4c0,0.8,0.2,1.4,0.6,1.9c0.4,0.5,0.9,0.7,1.5,0.7c1.1,0,2-0.5,2.8-1.5l2.2,4.1
		c-1.8,1.7-3.8,2.5-5.8,2.5s-3.7-0.7-5.1-2c-1.4-1.3-2.1-3.1-2.1-5.4v-9.7h-2.5v-4.2h2.5V5.9h5.9v6.3h5.1v4.2
		C194.9,16.4,189.8,16.4,189.8,16.4z"/>
</g>
<g class="st0">
	<path class="st2" d="M205.7,21.9v11.3h-5.9v-29h5.9v10.3c1.8-1.8,3.8-2.7,6-2.7s4.1,0.8,5.6,2.3c1.5,1.6,2.3,3.7,2.3,6.3v12.8h-5.9
		V21.7c0-3.2-1.2-4.9-3.6-4.9c-1.2,0-2.2,0.4-3.1,1.3C206.1,19,205.7,20.3,205.7,21.9z"/>
</g>
<g>
	<g>
		<path id="SVGID_1_" class="st2" d="M48.4,4.3L48.4,4.3c1.7,0,3,1.3,3,3l0,0c0,1.7-1.3,3-3,3l0,0c-1.7,0-3-1.3-3-3l0,0
			C45.4,5.6,46.7,4.3,48.4,4.3z"/>
	</g>
	<g>
		<g>
			<defs>
				<path id="SVGID_00000153664985458192920660000006736500615982171794_" d="M48.4,4.3L48.4,4.3c1.7,0,3,1.3,3,3l0,0
					c0,1.7-1.3,3-3,3l0,0c-1.7,0-3-1.3-3-3l0,0C45.4,5.6,46.7,4.3,48.4,4.3z"/>
			</defs>
			<clipPath id="SVGID_00000039119763215134193810000006240883867749845133_">
				<use xlink:href="#SVGID_00000153664985458192920660000006736500615982171794_"  style="overflow:visible;"/>
			</clipPath>
			<g style="clip-path:url(#SVGID_00000039119763215134193810000006240883867749845133_);">
				<g>
					<g>
						<circle id="SVGID_00000085213037286744140790000000098755014024599737_" class="st2" cx="48.4" cy="7.3" r="3"/>
					</g>
					<g>
						<g>
							<defs>
								<circle id="SVGID_00000174580508493841121290000013365954884650737546_" cx="48.4" cy="7.3" r="3"/>
							</defs>
							<clipPath id="SVGID_00000003088602839387867450000017878237324245710760_">
								<use xlink:href="#SVGID_00000174580508493841121290000013365954884650737546_"  style="overflow:visible;"/>
							</clipPath>
							<g style="clip-path:url(#SVGID_00000003088602839387867450000017878237324245710760_);">
								<rect x="45.4" y="4.3" class="st2" width="6" height="6"/>
							</g>
						</g>
					</g>
				</g>
			</g>
		</g>
	</g>
</g>
</svg>
